<?xml version="1.0" encoding="UTF-8" standalone="no"?>
<!-- Created with Inkscape (http://www.inkscape.org/) -->

<svg
   width="161.88297mm"
   height="85.894722mm"
   viewBox="0 0 161.88297 85.894722"
   version="1.1"
   id="svg658"
   xmlns="http://www.w3.org/2000/svg"
   xmlns:svg="http://www.w3.org/2000/svg">
  <defs
     id="defs655" />
  <g
     id="layer1"
     transform="translate(-39.415766,-62.886594)">
    <g
       id="g981">
      <g
         id="g22"
         transform="matrix(0.05148683,0,0,-0.05148683,44.913221,124.2384)">
        <path
           d="m 0,0 c 17.336,0 30.861,4.876 40.582,14.627 9.714,9.752 14.577,25.037 14.577,45.858 0,18.708 -4.53,33.139 -13.593,43.285 -9.061,10.145 -22.655,15.218 -40.778,15.218 H -29.551 V 0 Z m -78.013,-85.104 v 187.543 l -28.761,32.703 h 118.2 c 12.607,0 24.556,-1.515 35.853,-4.532 11.291,-3.022 21.209,-7.553 29.747,-13.592 8.534,-6.045 15.299,-13.729 20.291,-23.049 4.987,-9.327 7.487,-20.291 7.487,-32.9 0,-13.136 -2.5,-24.495 -7.487,-34.08 C 92.325,17.397 85.498,9.388 76.83,2.955 68.161,-3.484 58.114,-8.274 46.688,-11.426 35.263,-14.578 23.246,-16.154 10.638,-16.154 h -40.189 v -68.95 c 0,-6.304 1.706,-11.562 5.122,-15.76 3.411,-4.205 7.351,-7.621 11.821,-10.244 4.727,-2.894 10.373,-5.257 16.942,-7.092 h -111.108 c 5.251,1.835 9.979,4.198 14.183,7.092 3.676,2.623 7.025,6.039 10.048,10.244 3.017,4.198 4.53,9.456 4.53,15.76"
           style="fill:#d7bca2;fill-opacity:1;fill-rule:nonzero;stroke:none"
           id="path24" />
      </g>
      <g
         id="g26"
         transform="matrix(0.05148683,0,0,-0.05148683,51.929966,130.16793)">
        <path
           d="m 0,0 c 1.655,0.918 3.353,2.206 5.103,3.86 1.745,1.656 3.309,3.401 4.688,5.241 1.379,1.836 2.525,3.723 3.447,5.654 0.918,1.931 1.379,3.724 1.379,5.378 V 151.414 L -5.516,174.306 H 68.95 c -8.093,-3.681 -13.514,-7.68 -16.272,-11.998 -2.758,-4.323 -4.137,-7.955 -4.137,-10.894 V 20.133 L 68.95,-3.034 H -5.516 Z"
           style="fill:#d7bca2;fill-opacity:1;fill-rule:nonzero;stroke:none"
           id="path28" />
      </g>
      <g
         id="g30"
         transform="matrix(0.05148683,0,0,-0.05148683,65.973753,121.19348)">
        <path
           d="m 0,0 -10.204,-5.517 c -3.681,-2.025 -6.896,-5.287 -9.653,-9.791 -2.758,-4.507 -4.137,-8.873 -4.137,-13.1 V -177.34 h -41.095 l -79.981,148.932 h -0.277 v -119.421 l 24.547,-29.511 h -60.125 l 10.205,5.516 c 3.676,2.021 6.939,5.331 9.791,9.928 2.849,4.595 4.275,9.007 4.275,13.24 V -18.755 L -179.821,0 h 57.091 l 87.152,-162.998 v 134.59 L -59.849,0 Z"
           style="fill:#d7bca2;fill-opacity:1;fill-rule:nonzero;stroke:none"
           id="path32" />
      </g>
      <g
         id="g34"
         transform="matrix(0.05148683,0,0,-0.05148683,67.436403,130.09694)">
        <path
           d="m 0,0 c 3.676,1.836 6.662,4.641 8.963,8.411 2.297,3.767 3.447,7.215 3.447,10.343 v 131.281 c 0,3.124 -1.702,6.757 -5.101,10.894 -3.405,4.137 -8.413,8.136 -15.032,11.998 h 74.466 c -8.274,-3.862 -13.747,-7.861 -16.41,-11.998 -2.667,-4.137 -3.999,-7.77 -3.999,-10.894 V 93.771 h 76.396 v 56.264 c 0,3.124 -1.426,6.8 -4.274,11.032 -2.853,4.227 -8.231,8.179 -16.135,11.86 h 74.466 c -7.907,-3.681 -13.238,-7.633 -15.996,-11.86 -2.758,-4.232 -4.137,-7.908 -4.137,-11.032 V 18.754 c 0,-3.128 1.379,-6.757 4.137,-10.894 2.758,-4.137 8.089,-8.231 15.996,-12.273 h -74.466 c 7.904,4.042 13.282,8.136 16.135,12.273 2.848,4.137 4.274,7.766 4.274,10.894 V 81.912 H 46.334 V 18.754 c 0,-3.128 1.422,-6.757 4.274,-10.894 2.849,-4.137 8.227,-8.231 16.135,-12.273 H -7.723 Z"
           style="fill:#d7bca2;fill-opacity:1;fill-rule:nonzero;stroke:none"
           id="path36" />
      </g>
      <g
         id="g38"
         transform="matrix(0.05148683,0,0,-0.05148683,77.930161,130.15375)">
        <path
           d="m 0,0 c 1.836,0.918 3.586,2.159 5.24,3.724 1.656,1.559 3.077,3.261 4.276,5.101 1.193,1.836 2.159,3.724 2.895,5.654 0.733,1.931 1.104,3.724 1.104,5.378 V 151.139 L -6.619,174.03 h 129.902 l 4.964,-49.092 -43.576,37.784 H 47.438 V 94.323 h 63.986 V 62.606 c -3.861,3.676 -7.447,7.077 -10.757,10.206 -2.943,2.572 -5.93,4.917 -8.963,7.032 -3.034,2.112 -5.474,3.172 -7.308,3.172 H 47.438 V 7.998 h 43.577 c 1.284,0 2.986,0.552 5.101,1.655 2.113,1.103 4.319,2.573 6.619,4.412 2.297,1.836 4.733,3.905 7.31,6.206 2.572,2.297 5.055,4.732 7.446,7.309 5.697,5.697 11.765,12.226 18.203,19.582 L 130.454,-3.31 H -6.619 Z"
           style="fill:#d7bca2;fill-opacity:1;fill-rule:nonzero;stroke:none"
           id="path40" />
      </g>
      <g
         id="g42"
         transform="matrix(0.05148683,0,0,-0.05148683,86.464206,130.16793)">
        <path
           d="m 0,0 c 1.655,0.918 3.353,2.206 5.103,3.86 1.745,1.656 3.309,3.401 4.688,5.241 1.379,1.836 2.525,3.723 3.447,5.654 0.918,1.931 1.379,3.724 1.379,5.378 V 151.414 L -5.516,174.306 H 68.95 c -8.093,-3.681 -13.514,-7.68 -16.272,-11.998 -2.758,-4.323 -4.137,-7.955 -4.137,-10.894 V 20.133 L 68.95,-3.034 H -5.516 Z"
           style="fill:#d7bca2;fill-opacity:1;fill-rule:nonzero;stroke:none"
           id="path44" />
      </g>
      <g
         id="g46"
         transform="matrix(0.05148683,0,0,-0.05148683,93.833959,125.65232)">
        <path
           d="m 0,0 h 19.401 c 12.192,0 21.612,2.758 28.265,8.273 6.649,5.517 9.977,15.17 9.977,28.959 0,12.688 -2.956,22.203 -8.87,28.546 -5.912,6.344 -13.858,9.515 -23.83,9.515 L 0,75.293 Z m 0,-11.308 v -56.263 c 0,-3.128 0.646,-6.205 1.944,-9.24 1.297,-3.033 4.077,-5.749 8.343,-8.135 l 9.454,-5.792 H -53.78 c 3.676,1.469 6.985,3.215 9.928,5.24 2.573,1.836 4.87,4.227 6.895,7.171 2.021,2.938 3.034,6.524 3.034,10.756 V 63.71 L -53.78,86.602 h 84.528 c 19.995,0 35.134,-4.461 45.407,-13.377 C 86.429,64.305 91.566,52.769 91.566,38.612 91.566,26.291 87.804,15.949 80.284,7.584 72.76,-0.784 62.396,-6.253 49.188,-8.826 l 37.233,-51.298 c 4.042,-5.887 7.627,-10.804 10.756,-14.756 3.124,-3.956 5.697,-7.128 7.722,-9.515 2.387,-2.758 4.503,-4.874 6.343,-6.343 h -45.23 l -49.709,79.43 z"
           style="fill:#d7bca2;fill-opacity:1;fill-rule:nonzero;stroke:none"
           id="path48" />
      </g>
      <g
         id="g50"
         transform="matrix(0.05148683,0,0,-0.05148683,107.42342,125.76591)">
        <path
           d="m 0,0 c 0,12.315 -1.245,23.442 -3.736,33.371 -2.491,9.929 -5.991,18.341 -10.506,25.236 -4.517,6.895 -9.864,12.178 -16.04,15.859 -6.18,3.676 -12.864,5.515 -20.051,5.515 -7.008,0 -13.554,-1.887 -19.639,-5.653 -6.084,-3.771 -11.341,-9.149 -15.763,-16.135 -4.426,-6.99 -7.929,-15.444 -10.51,-25.374 -2.582,-9.928 -3.87,-21.054 -3.87,-33.371 0,-12.136 1.288,-23.124 3.87,-32.958 2.581,-9.839 6.132,-18.203 10.648,-25.098 4.516,-6.895 9.864,-12.23 16.039,-15.996 6.176,-3.771 12.86,-5.654 20.052,-5.654 7.188,0 13.781,1.883 19.776,5.654 5.99,3.766 11.2,9.144 15.626,16.134 4.42,6.986 7.877,15.398 10.368,25.236 C -1.245,-23.4 0,-12.321 0,0 m -136.521,0 c 0,13.971 2.107,26.614 6.331,37.922 4.222,11.307 10.187,20.961 17.901,28.959 7.709,7.998 16.841,14.156 27.398,18.478 10.554,4.319 22.163,6.482 34.833,6.482 12.665,0 24.275,-2.163 34.833,-6.482 C -4.671,81.037 4.46,74.879 12.174,66.881 19.884,58.883 25.848,49.229 30.071,37.922 34.294,26.614 36.405,13.971 36.405,0 c 0,-13.79 -2.111,-26.387 -6.334,-37.785 C 25.848,-49.188 19.884,-58.884 12.174,-66.882 4.46,-74.88 -4.671,-81.086 -15.225,-85.498 c -10.558,-4.413 -22.168,-6.619 -34.833,-6.619 -12.67,0 -24.279,2.206 -34.833,6.619 -10.557,4.412 -19.641,10.618 -27.26,18.616 -7.62,7.998 -13.588,17.694 -17.902,29.097 -4.313,11.398 -6.468,23.995 -6.468,37.785"
           style="fill:#d7bca2;fill-opacity:1;fill-rule:nonzero;stroke:none"
           id="path52" />
      </g>
      <g
         id="g54"
         transform="matrix(0.05148683,0,0,-0.05148683,117.45269,129.74196)">
        <path
           d="m 0,0 c 9.377,0 17.557,1.836 24.546,5.517 6.985,3.675 12.868,8.868 17.651,15.582 4.78,6.71 8.365,14.798 10.756,24.27 2.388,9.468 3.586,20.086 3.586,31.856 0,24.085 -4.736,43.024 -14.204,56.814 -9.472,13.79 -23.49,20.685 -42.06,20.685 H -21.237 V 0 Z m -66.192,-6.895 c 3.675,2.021 6.433,4.87 8.274,8.55 1.836,3.676 2.758,7.076 2.758,10.204 v 131.282 l -20.134,22.891 H 2.758 c 13.79,0 26.244,-2.164 37.371,-6.481 11.122,-4.322 20.59,-10.343 28.407,-18.066 7.813,-7.722 13.833,-17.008 18.065,-27.855 4.227,-10.852 6.343,-22.801 6.343,-35.855 0,-13.056 -2.068,-25.054 -6.205,-35.991 C 82.602,30.843 76.672,21.418 68.95,13.515 61.228,5.606 51.755,-0.509 40.542,-4.826 29.325,-9.148 16.639,-11.308 2.482,-11.308 h -77.776 z"
           style="fill:#d7bca2;fill-opacity:1;fill-rule:nonzero;stroke:none"
           id="path56" />
      </g>
      <g
         id="g58"
         transform="matrix(0.05148683,0,0,-0.05148683,123.58697,130.15375)">
        <path
           d="m 0,0 c 1.836,0.918 3.586,2.159 5.24,3.724 1.656,1.559 3.077,3.261 4.276,5.101 1.193,1.836 2.159,3.724 2.895,5.654 0.733,1.931 1.104,3.724 1.104,5.378 V 151.139 L -6.619,174.03 h 129.902 l 4.964,-49.092 -43.576,37.784 H 47.438 V 94.323 h 63.986 V 62.606 c -3.861,3.676 -7.447,7.077 -10.757,10.206 -2.943,2.572 -5.93,4.917 -8.963,7.032 -3.034,2.112 -5.474,3.172 -7.308,3.172 H 47.438 V 7.998 h 43.577 c 1.284,0 2.986,0.552 5.101,1.655 2.113,1.103 4.319,2.573 6.619,4.412 2.297,1.836 4.733,3.905 7.31,6.206 2.572,2.297 5.055,4.732 7.446,7.309 5.697,5.697 11.765,12.226 18.203,19.582 L 130.454,-3.31 H -6.619 Z"
           style="fill:#d7bca2;fill-opacity:1;fill-rule:nonzero;stroke:none"
           id="path60" />
      </g>
      <g
         id="g62"
         transform="matrix(0.05148683,0,0,-0.05148683,142.28619,125.2527)">
        <path
           d="M 0,0 -35.065,94.56 H -35.46 L -69.344,0 Z m -135.536,-92.984 c 3.94,1.835 7.419,4.395 10.441,7.683 3.017,3.281 5.775,6.76 8.275,10.441 2.493,3.675 4.727,7.419 6.697,11.229 1.971,3.805 3.607,7.418 4.926,10.835 l 74.466,207.638 H -8.273 L 74.86,-61.07 c 0.788,-2.106 1.903,-4.666 3.349,-7.683 1.44,-3.022 3.411,-6.175 5.91,-9.456 2.493,-3.287 5.775,-6.698 9.851,-10.244 4.068,-3.546 9.123,-6.895 15.169,-10.047 H 0 l 14.973,11.37 c 3.674,3.657 6.501,7.714 8.47,12.159 1.97,4.445 1.773,9.019 -0.59,13.723 L 5.91,-16.154 h -81.164 l -13.395,-36.858 c -5.782,-14.122 -3.024,-26.015 8.273,-35.687 l 13.002,-9.801 h -79.193 z"
           style="fill:#d7bca2;fill-opacity:1;fill-rule:nonzero;stroke:none"
           id="path64" />
      </g>
      <g
         id="g66"
         transform="matrix(0.05148683,0,0,-0.05148683,153.60152,121.77573)">
        <path
           d="m 0,0 h -45.231 l -43.577,-37.784 5.241,49.093 H 38.888 V 4.426 l -94.875,-159.15 H -5.24 l 44.679,39.164 -5.516,-50.471 H -94.6 v 6.619 z"
           style="fill:#d7bca2;fill-opacity:1;fill-rule:nonzero;stroke:none"
           id="path68" />
      </g>
      <g
         id="g70"
         transform="matrix(0.05148683,0,0,-0.05148683,156.76806,130.15375)">
        <path
           d="m 0,0 c 1.836,0.918 3.586,2.159 5.24,3.724 1.656,1.559 3.077,3.261 4.276,5.101 1.193,1.836 2.159,3.724 2.895,5.654 0.733,1.931 1.104,3.724 1.104,5.378 V 151.139 L -6.619,174.03 h 129.902 l 4.964,-49.092 -43.576,37.784 H 47.438 V 94.323 h 63.986 V 62.606 c -3.861,3.676 -7.447,7.077 -10.757,10.206 -2.943,2.572 -5.93,4.917 -8.963,7.032 -3.034,2.112 -5.474,3.172 -7.308,3.172 H 47.438 V 7.998 h 43.577 c 1.284,0 2.986,0.552 5.101,1.655 2.113,1.103 4.319,2.573 6.619,4.412 2.297,1.836 4.733,3.905 7.31,6.206 2.572,2.297 5.055,4.732 7.446,7.309 5.697,5.697 11.765,12.226 18.203,19.582 L 130.454,-3.31 H -6.619 Z"
           style="fill:#d7bca2;fill-opacity:1;fill-rule:nonzero;stroke:none"
           id="path72" />
      </g>
      <g
         id="g74"
         transform="matrix(0.05148683,0,0,-0.05148683,165.62873,122.55672)">
        <path
           d="M 0,0 -23.167,26.478 H 51.851 L 45.23,22.616 C 40.447,19.673 37.414,16.548 36.13,13.238 34.841,9.929 34.199,7.076 34.199,4.688 34.199,3.4 34.475,1.836 35.026,0 l 40.819,-137.072 38.612,131.28 c 0.918,2.759 1.379,5.331 1.379,7.723 L 94.048,26.478 h 59.572 l -7.723,-3.31 c -2.576,-1.475 -4.92,-3.311 -7.032,-5.517 -2.116,-2.206 -3.999,-4.645 -5.654,-7.308 -1.654,-2.668 -3.081,-5.426 -4.274,-8.275 -1.199,-2.852 -2.165,-5.472 -2.897,-7.86 L 83.016,-150.862 H 46.059 Z"
           style="fill:#d7bca2;fill-opacity:1;fill-rule:nonzero;stroke:none"
           id="path76" />
      </g>
      <g
         id="g78"
         transform="matrix(0.05148683,0,0,-0.05148683,174.37576,130.15375)">
        <path
           d="m 0,0 c 1.836,0.918 3.586,2.159 5.24,3.724 1.656,1.559 3.077,3.261 4.276,5.101 1.193,1.836 2.159,3.724 2.895,5.654 0.733,1.931 1.104,3.724 1.104,5.378 V 151.139 L -6.619,174.03 h 129.902 l 4.964,-49.092 -43.576,37.784 H 47.438 V 94.323 h 63.986 V 62.606 c -3.861,3.676 -7.447,7.077 -10.757,10.206 -2.943,2.572 -5.93,4.917 -8.963,7.032 -3.034,2.112 -5.474,3.172 -7.308,3.172 H 47.438 V 7.998 h 43.577 c 1.284,0 2.986,0.552 5.101,1.655 2.113,1.103 4.319,2.573 6.619,4.412 2.297,1.836 4.733,3.905 7.31,6.206 2.572,2.297 5.055,4.732 7.446,7.309 5.697,5.697 11.765,12.226 18.203,19.582 L 130.454,-3.31 H -6.619 Z"
           style="fill:#d7bca2;fill-opacity:1;fill-rule:nonzero;stroke:none"
           id="path80" />
      </g>
      <g
         id="g82"
         transform="matrix(0.05148683,0,0,-0.05148683,186.21844,129.74196)">
        <path
           d="m 0,0 c 9.377,0 17.557,1.836 24.546,5.517 6.985,3.675 12.868,8.868 17.651,15.582 4.78,6.71 8.365,14.798 10.756,24.27 2.388,9.468 3.586,20.086 3.586,31.856 0,24.085 -4.736,43.024 -14.204,56.814 -9.472,13.79 -23.49,20.685 -42.06,20.685 H -21.237 V 0 Z m -66.192,-6.895 c 3.675,2.021 6.433,4.87 8.274,8.55 1.836,3.676 2.758,7.076 2.758,10.204 v 131.282 l -20.134,22.891 H 2.758 c 13.79,0 26.244,-2.164 37.371,-6.481 11.122,-4.322 20.59,-10.343 28.407,-18.066 7.813,-7.722 13.833,-17.008 18.065,-27.855 4.227,-10.852 6.343,-22.801 6.343,-35.855 0,-13.056 -2.068,-25.054 -6.205,-35.991 C 82.602,30.843 76.672,21.418 68.95,13.515 61.228,5.606 51.755,-0.509 40.542,-4.826 29.325,-9.148 16.639,-11.308 2.482,-11.308 h -77.776 z"
           style="fill:#d7bca2;fill-opacity:1;fill-rule:nonzero;stroke:none"
           id="path84" />
      </g>
      <g
         id="g86"
         transform="matrix(0.05148683,0,0,-0.05148683,199.42436,125.76591)">
        <path
           d="m 0,0 c 0,12.315 -1.245,23.442 -3.736,33.371 -2.491,9.929 -5.991,18.341 -10.506,25.236 -4.517,6.895 -9.864,12.178 -16.04,15.859 -6.18,3.676 -12.864,5.515 -20.051,5.515 -7.008,0 -13.554,-1.887 -19.639,-5.653 -6.084,-3.771 -11.341,-9.149 -15.763,-16.135 -4.426,-6.99 -7.929,-15.444 -10.51,-25.374 -2.582,-9.928 -3.87,-21.054 -3.87,-33.371 0,-12.136 1.288,-23.124 3.87,-32.958 2.581,-9.839 6.132,-18.203 10.648,-25.098 4.516,-6.895 9.864,-12.23 16.039,-15.996 6.176,-3.771 12.86,-5.654 20.052,-5.654 7.188,0 13.781,1.883 19.776,5.654 5.99,3.766 11.2,9.144 15.626,16.134 4.42,6.986 7.877,15.398 10.368,25.236 C -1.245,-23.4 0,-12.321 0,0 m -136.521,0 c 0,13.971 2.107,26.614 6.331,37.922 4.222,11.307 10.187,20.961 17.901,28.959 7.709,7.998 16.841,14.156 27.398,18.478 10.554,4.319 22.163,6.482 34.833,6.482 12.665,0 24.275,-2.163 34.833,-6.482 C -4.671,81.037 4.46,74.879 12.174,66.881 19.884,58.883 25.848,49.229 30.071,37.922 34.294,26.614 36.405,13.971 36.405,0 c 0,-13.79 -2.111,-26.387 -6.334,-37.785 C 25.848,-49.188 19.884,-58.884 12.174,-66.882 4.46,-74.88 -4.671,-81.086 -15.225,-85.498 c -10.558,-4.413 -22.168,-6.619 -34.833,-6.619 -12.67,0 -24.279,2.206 -34.833,6.619 -10.557,4.412 -19.641,10.618 -27.26,18.616 -7.62,7.998 -13.588,17.694 -17.902,29.097 -4.313,11.398 -6.468,23.995 -6.468,37.785"
           style="fill:#d7bca2;fill-opacity:1;fill-rule:nonzero;stroke:none"
           id="path88" />
      </g>
      <g
         id="g90"
         transform="matrix(0.05148683,0,0,-0.05148683,95.38812,146.04601)">
        <path
           d="m 0,0 -17.979,48.48 h -0.202 L -35.553,0 Z m -69.488,-47.672 c 2.019,0.941 3.802,2.254 5.352,3.939 1.547,1.682 2.961,3.465 4.242,5.353 1.279,1.884 2.424,3.803 3.435,5.757 1.01,1.95 1.85,3.804 2.524,5.555 L -15.757,79.386 H -4.242 L 38.38,-31.31 c 0.403,-1.08 0.974,-2.392 1.717,-3.939 0.738,-1.55 1.748,-3.166 3.03,-4.848 1.278,-1.685 2.96,-3.434 5.05,-5.252 2.086,-1.818 4.677,-3.535 7.776,-5.151 H 0 l 7.676,5.83 c 1.884,1.874 3.333,3.954 4.343,6.233 1.009,2.279 0.909,4.624 -0.303,7.036 L 3.029,-8.282 h -41.611 l -6.868,-18.897 c -2.964,-7.24 -1.55,-13.338 4.242,-18.297 l 6.666,-5.024 h -40.603 z"
           style="fill:#d7bca2;fill-opacity:1;fill-rule:nonzero;stroke:none"
           id="path92" />
      </g>
      <g
         id="g94"
         transform="matrix(0.05148683,0,0,-0.05148683,101.58665,148.21967)">
        <path
           d="m 0,0 c 6.868,0 12.859,1.345 17.979,4.04 5.116,2.692 9.424,6.495 12.927,11.413 3.5,4.914 6.126,10.838 7.878,17.776 1.749,6.934 2.626,14.711 2.626,23.331 0,17.64 -3.469,31.511 -10.402,41.612 -6.938,10.099 -17.205,15.149 -30.806,15.149 H -15.554 V 0 Z m -48.479,-5.05 c 2.692,1.48 4.711,3.567 6.059,6.262 1.345,2.692 2.021,5.183 2.021,7.474 v 96.152 l -14.747,16.766 H 2.021 c 10.099,0 19.221,-1.584 27.371,-4.748 8.146,-3.165 15.08,-7.574 20.805,-13.23 5.723,-5.656 10.132,-12.458 13.232,-20.402 3.095,-7.948 4.645,-16.7 4.645,-26.26 C 68.074,47.4 66.56,38.613 63.529,30.603 60.499,22.589 56.156,15.687 50.5,9.897 44.845,4.106 37.907,-0.373 29.694,-3.535 21.479,-6.701 12.187,-8.282 1.818,-8.282 h -56.964 z"
           style="fill:#d7bca2;fill-opacity:1;fill-rule:nonzero;stroke:none"
           id="path96" />
      </g>
      <g
         id="g98"
         transform="matrix(0.05148683,0,0,-0.05148683,105.91316,142.9571)">
        <path
           d="M 0,0 -16.968,19.392 H 37.977 L 33.128,16.563 C 29.625,14.408 27.403,12.12 26.462,9.696 25.519,7.271 25.048,5.183 25.048,3.434 25.048,2.49 25.25,1.345 25.654,0 L 55.551,-100.395 83.83,-4.242 c 0.673,2.02 1.01,3.904 1.01,5.656 L 68.882,19.392 h 43.633 l -5.657,-2.424 c -1.887,-1.079 -3.604,-2.424 -5.151,-4.04 C 100.157,11.312 98.778,9.525 97.566,7.575 96.354,5.621 95.31,3.602 94.436,1.515 93.558,-0.574 92.851,-2.493 92.314,-4.242 L 60.803,-110.494 H 33.734 Z"
           style="fill:#d7bca2;fill-opacity:1;fill-rule:nonzero;stroke:none"
           id="path100" />
      </g>
      <g
         id="g102"
         transform="matrix(0.05148683,0,0,-0.05148683,116.45905,145.3076)">
        <path
           d="m 0,0 c 0,9.021 -0.912,17.17 -2.736,24.442 -1.825,7.272 -4.387,13.433 -7.695,18.483 -3.308,5.051 -7.224,8.92 -11.748,11.615 -4.526,2.692 -9.421,4.04 -14.685,4.04 -5.133,0 -9.927,-1.382 -14.384,-4.141 -4.456,-2.761 -8.307,-6.701 -11.545,-11.817 -3.242,-5.119 -5.808,-11.311 -7.698,-18.584 -1.891,-7.271 -2.835,-15.421 -2.835,-24.441 0,-8.889 0.944,-16.937 2.835,-24.14 1.89,-7.205 4.491,-13.332 7.799,-18.382 3.307,-5.05 7.224,-8.957 11.748,-11.716 4.522,-2.761 9.418,-4.141 14.685,-4.141 5.265,0 10.094,1.38 14.485,4.141 4.386,2.759 8.203,6.698 11.444,11.817 3.238,5.117 5.769,11.277 7.594,18.483 C -0.912,-17.139 0,-9.023 0,0 m -99.989,0 c 0,10.232 1.543,19.493 4.635,27.775 3.094,8.283 7.462,15.352 13.112,21.21 5.646,5.858 12.335,10.369 20.067,13.535 7.73,3.162 16.233,4.747 25.512,4.747 9.276,0 17.779,-1.585 25.513,-4.747 7.729,-3.166 14.417,-7.677 20.067,-13.535 5.646,-5.858 10.015,-12.927 13.107,-21.21 3.094,-8.282 4.64,-17.543 4.64,-27.775 0,-10.1 -1.546,-19.325 -4.64,-27.674 -3.092,-8.351 -7.461,-15.453 -13.107,-21.31 -5.65,-5.859 -12.338,-10.404 -20.067,-13.636 -7.734,-3.232 -16.237,-4.848 -25.513,-4.848 -9.279,0 -17.782,1.616 -25.512,4.848 -7.732,3.232 -14.386,7.777 -19.966,13.636 -5.581,5.857 -9.952,12.959 -13.111,21.31 -3.159,8.349 -4.737,17.574 -4.737,27.674"
           style="fill:#d7bca2;fill-opacity:1;fill-rule:nonzero;stroke:none"
           id="path104" />
      </g>
      <g
         id="g106"
         transform="matrix(0.05148683,0,0,-0.05148683,118.96552,145.29719)">
        <path
           d="m 0,0 c 0,10.504 1.647,19.897 4.949,28.179 3.298,8.282 7.809,15.317 13.534,21.109 5.722,5.788 12.423,10.201 20.099,13.232 7.676,3.029 15.889,4.544 24.644,4.544 3.232,0 6.631,-0.17 10.201,-0.505 3.566,-0.337 7.07,-0.808 10.504,-1.413 3.434,-0.607 6.767,-1.283 9.999,-2.021 3.232,-0.741 6.193,-1.515 8.888,-2.323 L 105.444,31.714 63.226,62.62 c -4.58,0 -9.058,-1.348 -13.433,-4.04 C 45.415,55.885 41.543,51.879 38.178,46.562 34.811,41.239 32.118,34.675 30.098,26.866 28.078,19.055 27.068,10.1 27.068,0 c 0,-9.968 1.077,-18.685 3.232,-26.159 2.152,-7.474 4.98,-13.736 8.484,-18.786 3.5,-5.05 7.506,-8.857 12.019,-11.413 4.51,-2.56 9.122,-3.838 13.837,-3.838 1.077,0 2.49,0.404 4.242,1.212 1.749,0.808 3.668,1.849 5.757,3.131 2.087,1.279 4.308,2.758 6.666,4.444 2.354,1.682 4.677,3.399 6.969,5.151 5.384,4.173 11.04,8.888 16.968,14.14 l -2.626,-28.886 c -2.292,-0.676 -5.018,-1.383 -8.181,-2.121 -3.165,-0.741 -6.534,-1.448 -10.1,-2.121 -3.569,-0.672 -7.206,-1.243 -10.908,-1.717 -3.705,-0.471 -7.171,-0.707 -10.403,-0.707 -8.351,0 -16.295,1.383 -23.836,4.141 -7.543,2.758 -14.241,6.9 -20.099,12.424 C 13.231,-45.586 8.585,-38.582 5.151,-30.098 1.717,-21.614 0,-11.583 0,0"
           style="fill:#d7bca2;fill-opacity:1;fill-rule:nonzero;stroke:none"
           id="path108" />
      </g>
      <g
         id="g110"
         transform="matrix(0.05148683,0,0,-0.05148683,129.01214,146.04601)">
        <path
           d="m 0,0 -17.979,48.48 h -0.202 L -35.553,0 Z m -69.488,-47.672 c 2.019,0.941 3.802,2.254 5.352,3.939 1.547,1.682 2.961,3.465 4.242,5.353 1.279,1.884 2.424,3.803 3.435,5.757 1.01,1.95 1.85,3.804 2.524,5.555 L -15.757,79.386 H -4.242 L 38.38,-31.31 c 0.403,-1.08 0.974,-2.392 1.717,-3.939 0.738,-1.55 1.748,-3.166 3.03,-4.848 1.278,-1.685 2.96,-3.434 5.05,-5.252 2.086,-1.818 4.677,-3.535 7.776,-5.151 H 0 l 7.676,5.83 c 1.884,1.874 3.333,3.954 4.343,6.233 1.009,2.279 0.909,4.624 -0.303,7.036 L 3.029,-8.282 h -41.611 l -6.868,-18.897 c -2.964,-7.24 -1.55,-13.338 4.242,-18.297 l 6.666,-5.024 h -40.603 z"
           style="fill:#d7bca2;fill-opacity:1;fill-rule:nonzero;stroke:none"
           id="path112" />
      </g>
      <g
         id="g114"
         transform="matrix(0.05148683,0,0,-0.05148683,132.70421,145.29719)">
        <path
           d="m 0,0 c 0,10.504 1.647,19.897 4.949,28.179 3.298,8.282 7.809,15.317 13.534,21.109 5.722,5.788 12.423,10.201 20.099,13.232 7.676,3.029 15.889,4.544 24.644,4.544 3.232,0 6.631,-0.17 10.201,-0.505 3.566,-0.337 7.07,-0.808 10.504,-1.413 3.434,-0.607 6.767,-1.283 9.999,-2.021 3.232,-0.741 6.193,-1.515 8.888,-2.323 L 105.444,31.714 63.226,62.62 c -4.58,0 -9.058,-1.348 -13.433,-4.04 C 45.415,55.885 41.543,51.879 38.178,46.562 34.811,41.239 32.118,34.675 30.098,26.866 28.078,19.055 27.068,10.1 27.068,0 c 0,-9.968 1.077,-18.685 3.232,-26.159 2.152,-7.474 4.98,-13.736 8.484,-18.786 3.5,-5.05 7.506,-8.857 12.019,-11.413 4.51,-2.56 9.122,-3.838 13.837,-3.838 1.077,0 2.49,0.404 4.242,1.212 1.749,0.808 3.668,1.849 5.757,3.131 2.087,1.279 4.308,2.758 6.666,4.444 2.354,1.682 4.677,3.399 6.969,5.151 5.384,4.173 11.04,8.888 16.968,14.14 l -2.626,-28.886 c -2.292,-0.676 -5.018,-1.383 -8.181,-2.121 -3.165,-0.741 -6.534,-1.448 -10.1,-2.121 -3.569,-0.672 -7.206,-1.243 -10.908,-1.717 -3.705,-0.471 -7.171,-0.707 -10.403,-0.707 -8.351,0 -16.295,1.383 -23.836,4.141 -7.543,2.758 -14.241,6.9 -20.099,12.424 C 13.231,-45.586 8.585,-38.582 5.151,-30.098 1.717,-21.614 0,-11.583 0,0"
           style="fill:#d7bca2;fill-opacity:1;fill-rule:nonzero;stroke:none"
           id="path116" />
      </g>
      <g
         id="g118"
         transform="matrix(0.05148683,0,0,-0.05148683,139.38111,148.53171)">
        <path
           d="m 0,0 c 1.212,0.673 2.455,1.616 3.737,2.828 1.278,1.212 2.424,2.49 3.434,3.838 1.01,1.345 1.85,2.728 2.525,4.142 0.672,1.414 1.01,2.726 1.01,3.938 v 96.152 L -4.04,127.664 H 50.5 c -5.928,-2.695 -9.898,-5.624 -11.918,-8.787 -2.02,-3.165 -3.03,-5.826 -3.03,-7.979 V 14.746 L 50.5,-2.222 H -4.04 Z"
           style="fill:#d7bca2;fill-opacity:1;fill-rule:nonzero;stroke:none"
           id="path120" />
      </g>
      <g
         id="g122"
         transform="matrix(0.05148683,0,0,-0.05148683,146.5781,146.04601)">
        <path
           d="m 0,0 -17.979,48.48 h -0.202 L -35.553,0 Z m -69.488,-47.672 c 2.019,0.941 3.802,2.254 5.352,3.939 1.547,1.682 2.961,3.465 4.242,5.353 1.279,1.884 2.424,3.803 3.435,5.757 1.01,1.95 1.85,3.804 2.524,5.555 L -15.757,79.386 H -4.242 L 38.38,-31.31 c 0.403,-1.08 0.974,-2.392 1.717,-3.939 0.738,-1.55 1.748,-3.166 3.03,-4.848 1.278,-1.685 2.96,-3.434 5.05,-5.252 2.086,-1.818 4.677,-3.535 7.776,-5.151 H 0 l 7.676,5.83 c 1.884,1.874 3.333,3.954 4.343,6.233 1.009,2.279 0.909,4.624 -0.303,7.036 L 3.029,-8.282 h -41.611 l -6.868,-18.897 c -2.964,-7.24 -1.55,-13.338 4.242,-18.297 l 6.666,-5.024 h -40.603 z"
           style="fill:#d7bca2;fill-opacity:1;fill-rule:nonzero;stroke:none"
           id="path124" />
      </g>
      <g
         id="g126"
         transform="matrix(0.05148683,0,0,-0.05148683,76.868296,137.20104)">
        <path
           d="M 0,0 H 1694.443"
           style="fill:none;stroke:#d7bca2;stroke-width:0.5;stroke-linecap:butt;stroke-linejoin:miter;stroke-miterlimit:10;stroke-dasharray:none;stroke-opacity:1"
           id="path128" />
      </g>
      <g
         id="g238"
         transform="matrix(0.05148683,0,0,-0.05148683,102.98079,66.187519)">
        <path
           d="m 0,0 v -336.805 h 123.996 c 62.679,0 106.593,5.558 131.787,16.695 25.177,11.125 46.031,30.409 62.57,57.872 16.526,27.436 24.794,59.584 24.794,96.434 0,40.295 -9.624,73.971 -28.838,101.035 -19.229,27.058 -45.362,45.391 -78.435,54.983 C 212.813,-3.257 167.827,0 100.93,0 Z M -210.135,62.757 H 107.36 c 96.423,0 162.89,-6.135 199.381,-18.427 45.712,-14.577 83.46,-39.539 113.233,-74.834 29.764,-35.315 44.651,-80.234 44.651,-134.733 0,-46.441 -11.347,-86.558 -34.018,-120.325 -27.274,-40.694 -60.42,-69.58 -99.426,-86.653 -39.001,-17.082 -100.403,-25.618 -184.177,-25.618 H 0 v -206.116 c 0,-30.709 1.733,-50.098 5.19,-58.145 4.602,-11.147 10.947,-18.911 18.99,-23.318 8.068,-4.423 24.373,-6.619 48.946,-6.619 h 27.636 v -48.364 h -310.897 v 48.364 h 18.99 c 26.491,0 44.519,2.196 54.121,6.619 9.603,4.407 16.6,11.309 21.023,20.712 4.402,9.413 6.619,27.169 6.619,53.26 v 549.266 c 0,25.514 -2.008,42.638 -6.042,51.338 -4.034,8.693 -10.758,15.081 -20.15,19.136 -9.413,4.065 -27.935,6.093 -55.571,6.093 h -18.99 z"
           style="fill:#d7bca2;fill-opacity:1;fill-rule:nonzero;stroke:none"
           id="path240" />
      </g>
      <g
         id="g242"
         transform="matrix(0.05148683,0,0,-0.05148683,144.30091,85.17804)">
        <path
           d="m 0,0 c 0,0 -9.666,2.027 -26.055,6.178 -8.205,2.033 -18.469,3.671 -29.753,6.167 -11.588,1.517 -24.332,3.939 -38.157,4.528 -13.721,1.208 -28.335,0.593 -42.98,-0.804 -14.635,-2.201 -29.248,-5.369 -43.799,-10.963 -14.571,-5.742 -29.301,-13.348 -44.944,-22.856 -15.655,-9.471 -32.222,-20.828 -50.324,-33.041 -36.014,-24.531 -76.031,-49.331 -117.456,-64.349 -41.478,-15.217 -82.952,-19.698 -115.765,-16.331 -33.094,3.01 -57.536,12.823 -73.705,19.289 -15.989,7.743 -24.216,12.46 -24.216,12.46 0,0 9.834,1.345 26.512,2.989 16.736,2.847 40.4,6.036 66.644,15.007 26.357,8.741 54.282,22.872 83.359,42.282 29.323,19.514 59.948,44.996 98.756,71.529 19.468,13.117 40.343,25.53 62.816,35.421 22.398,9.917 46.488,17.057 70.253,19.977 23.911,2.873 46.887,0.84 67.08,-3.283 20.097,-4.907 37.642,-11.504 52.172,-19.473 14.834,-7.433 26.591,-16.268 36.855,-23.602 9.739,-8.226 18.018,-15.012 24.195,-21.274 C -6.198,7.239 0,0 0,0"
           style="fill:#d7bca2;fill-opacity:1;fill-rule:nonzero;stroke:none"
           id="path244" />
      </g>
      <g
         id="g246"
         transform="matrix(0.05148683,0,0,-0.05148683,148.16413,101.74875)">
        <path
           d="M 0,0 C -21.116,0 -37.895,5.453 -50.376,16.374 -62.857,27.3 -75.233,49.614 -87.504,83.333 L -337.072,754.798 H -445.725 L -209.236,93.839 c 10.737,-31.476 16.116,-51.243 16.116,-59.291 0,-11.146 -5.568,-20.36 -16.693,-27.651 -5.758,-3.829 -17.84,-5.751 -36.267,-5.751 -8.836,0 -17.851,-0.379 -27.064,-1.146 V -48.364 H 12.67 V 0 Z"
           style="fill:#d7bca2;fill-opacity:1;fill-rule:nonzero;stroke:none"
           id="path248" />
      </g>
      <g
         id="g250"
         transform="matrix(0.05148683,0,0,-0.05148683,117.10008,101.56646)">
        <path
           d="m 0,0 c -6.913,2.884 -12.386,7.202 -16.405,12.959 -4.034,5.757 -6.052,12.47 -6.052,20.15 0,6.913 3.258,19.379 9.787,37.417 L 41.548,222.5 H -27.037 L -78.889,84.919 c -11.903,-31.476 -21.495,-52.093 -28.786,-61.885 -7.297,-9.781 -15.827,-16.893 -25.619,-21.3 -9.786,-4.423 -25.818,-6.619 -48.081,-6.619 V -53.249 H 58.726 V -4.885 C 52.19,-4.507 43.755,-4.308 33.398,-4.308 18.039,-4.308 6.902,-2.879 0,0"
           style="fill:#d7bca2;fill-opacity:1;fill-rule:nonzero;stroke:none"
           id="path252" />
      </g>
    </g>
  </g>
</svg>
