<?xml version="1.0" encoding="UTF-8" standalone="no"?>
<!-- Created with Inkscape (http://www.inkscape.org/) -->

<svg
   width="388.18811mm"
   height="283.81219mm"
   viewBox="0 0 388.18811 283.81219"
   version="1.1"
   id="svg550"
   inkscape:version="1.1 (c68e22c387, 2021-05-23)"
   sodipodi:docname="pinheiro-logo.svg"
   xmlns:inkscape="http://www.inkscape.org/namespaces/inkscape"
   xmlns:sodipodi="http://sodipodi.sourceforge.net/DTD/sodipodi-0.dtd"
   xmlns="http://www.w3.org/2000/svg"
   xmlns:svg="http://www.w3.org/2000/svg">
  <sodipodi:namedview
     id="namedview552"
     pagecolor="#ffffff"
     bordercolor="#666666"
     borderopacity="1.0"
     inkscape:pageshadow="2"
     inkscape:pageopacity="0.0"
     inkscape:pagecheckerboard="0"
     inkscape:document-units="mm"
     showgrid="false"
     fit-margin-top="0"
     fit-margin-left="0"
     fit-margin-right="0"
     fit-margin-bottom="0"
     inkscape:zoom="0.16770307"
     inkscape:cx="-283.2387"
     inkscape:cy="533.68134"
     inkscape:window-width="1920"
     inkscape:window-height="1016"
     inkscape:window-x="0"
     inkscape:window-y="27"
     inkscape:window-maximized="1"
     inkscape:current-layer="layer1" />
  <defs
     id="defs547" />
  <g
     inkscape:label="Layer 1"
     inkscape:groupmode="layer"
     id="layer1"
     transform="translate(-392.6748,28.52753)">
    <g
       id="g603"
       transform="translate(527.21109,-6.9202049)">
      <g
         id="g238"
         transform="matrix(0.35277777,0,0,-0.35277777,-60.405337,1.0099657)">
        <path
           d="m 0,0 v -336.805 h 123.996 c 62.679,0 106.593,5.558 131.787,16.695 25.177,11.125 46.031,30.409 62.57,57.872 16.526,27.436 24.794,59.584 24.794,96.434 0,40.295 -9.624,73.971 -28.838,101.035 -19.229,27.058 -45.362,45.391 -78.435,54.983 C 212.813,-3.257 167.827,0 100.93,0 Z M -210.135,62.757 H 107.36 c 96.423,0 162.89,-6.135 199.381,-18.427 45.712,-14.577 83.46,-39.539 113.233,-74.834 29.764,-35.315 44.651,-80.234 44.651,-134.733 0,-46.441 -11.347,-86.558 -34.018,-120.325 -27.274,-40.694 -60.42,-69.58 -99.426,-86.653 -39.001,-17.082 -100.403,-25.618 -184.177,-25.618 H 0 v -206.116 c 0,-30.709 1.733,-50.098 5.19,-58.145 4.602,-11.147 10.947,-18.911 18.99,-23.318 8.068,-4.423 24.373,-6.619 48.946,-6.619 h 27.636 v -48.364 h -310.897 v 48.364 h 18.99 c 26.491,0 44.519,2.196 54.121,6.619 9.603,4.407 16.6,11.309 21.023,20.712 4.402,9.413 6.619,27.169 6.619,53.26 v 549.266 c 0,25.514 -2.008,42.638 -6.042,51.338 -4.034,8.693 -10.758,15.081 -20.15,19.136 -9.413,4.065 -27.935,6.093 -55.571,6.093 h -18.99 z"
           style="fill:#d7bca2;fill-opacity:1;fill-rule:nonzero;stroke:none"
           id="path240" />
      </g>
      <g
         id="g242"
         transform="matrix(0.35277777,0,0,-0.35277777,222.71209,131.12933)">
        <path
           d="m 0,0 c 0,0 -9.666,2.027 -26.055,6.178 -8.205,2.033 -18.469,3.671 -29.753,6.167 -11.588,1.517 -24.332,3.939 -38.157,4.528 -13.721,1.208 -28.335,0.593 -42.98,-0.804 -14.635,-2.201 -29.248,-5.369 -43.799,-10.963 -14.571,-5.742 -29.301,-13.348 -44.944,-22.856 -15.655,-9.471 -32.222,-20.828 -50.324,-33.041 -36.014,-24.531 -76.031,-49.331 -117.456,-64.349 -41.478,-15.217 -82.952,-19.698 -115.765,-16.331 -33.094,3.01 -57.536,12.823 -73.705,19.289 -15.989,7.743 -24.216,12.46 -24.216,12.46 0,0 9.834,1.345 26.512,2.989 16.736,2.847 40.4,6.036 66.644,15.007 26.357,8.741 54.282,22.872 83.359,42.282 29.323,19.514 59.948,44.996 98.756,71.529 19.468,13.117 40.343,25.53 62.816,35.421 22.398,9.917 46.488,17.057 70.253,19.977 23.911,2.873 46.887,0.84 67.08,-3.283 20.097,-4.907 37.642,-11.504 52.172,-19.473 14.834,-7.433 26.591,-16.268 36.855,-23.602 9.739,-8.226 18.018,-15.012 24.195,-21.274 C -6.198,7.239 0,0 0,0"
           style="fill:#d7bca2;fill-opacity:1;fill-rule:nonzero;stroke:none"
           id="path244" />
      </g>
      <g
         id="g246"
         transform="matrix(0.35277777,0,0,-0.35277777,249.18213,244.66863)">
        <path
           d="M 0,0 C -21.116,0 -37.895,5.453 -50.376,16.374 -62.857,27.3 -75.233,49.614 -87.504,83.333 L -337.072,754.798 H -445.725 L -209.236,93.839 c 10.737,-31.476 16.116,-51.243 16.116,-59.291 0,-11.146 -5.568,-20.36 -16.693,-27.651 -5.758,-3.829 -17.84,-5.751 -36.267,-5.751 -8.836,0 -17.851,-0.379 -27.064,-1.146 V -48.364 H 12.67 V 0 Z"
           style="fill:#d7bca2;fill-opacity:1;fill-rule:nonzero;stroke:none"
           id="path248" />
      </g>
      <g
         id="g250"
         transform="matrix(0.35277777,0,0,-0.35277777,36.337263,243.41962)">
        <path
           d="m 0,0 c -6.913,2.884 -12.386,7.202 -16.405,12.959 -4.034,5.757 -6.052,12.47 -6.052,20.15 0,6.913 3.258,19.379 9.787,37.417 L 41.548,222.5 H -27.037 L -78.889,84.919 c -11.903,-31.476 -21.495,-52.093 -28.786,-61.885 -7.297,-9.781 -15.827,-16.893 -25.619,-21.3 -9.786,-4.423 -25.818,-6.619 -48.081,-6.619 V -53.249 H 58.726 V -4.885 C 52.19,-4.507 43.755,-4.308 33.398,-4.308 18.039,-4.308 6.902,-2.879 0,0"
           style="fill:#d7bca2;fill-opacity:1;fill-rule:nonzero;stroke:none"
           id="path252" />
      </g>
    </g>
  </g>
</svg>
